<?xml version="1.0" standalone="no"?>
<!DOCTYPE svg PUBLIC "-//W3C//DTD SVG 20010904//EN"
 "http://www.w3.org/TR/2001/REC-SVG-20010904/DTD/svg10.dtd">
<svg version="1.0" xmlns="http://www.w3.org/2000/svg"
 width="1320.000000pt" height="1320.000000pt" viewBox="0 0 1320.000000 1320.000000"
 preserveAspectRatio="xMidYMid meet">
<metadata>
Created by potrace 1.11, written by Peter Selinger 2001-2013
</metadata>
<g transform="translate(0.000000,1320.000000) scale(0.100000,-0.100000)"
fill="#000000" stroke="none">
<path d="M5947 11284 c-1 -2 -56 -6 -122 -9 -66 -3 -127 -7 -135 -10 -8 -2
-44 -7 -80 -10 -36 -4 -67 -8 -70 -10 -3 -2 -25 -6 -50 -9 -25 -3 -54 -8 -66
-10 -11 -2 -81 -16 -155 -31 -74 -15 -145 -28 -159 -30 -14 -2 -79 -16 -145
-30 -66 -15 -129 -28 -140 -30 -27 -5 -59 -13 -62 -15 -2 -2 -12 -4 -23 -5
-11 -1 -21 -3 -22 -5 -2 -1 -12 -3 -22 -5 -11 -2 -31 -7 -45 -11 -14 -4 -29
-8 -33 -9 -5 -2 -11 -4 -15 -5 -5 -1 -12 -2 -17 -1 -4 1 -14 -4 -22 -10 -8 -6
-14 -9 -14 -6 0 3 -15 1 -32 -4 -18 -6 -44 -12 -58 -15 -14 -3 -34 -8 -45 -11
-11 -4 -23 -8 -27 -9 -5 -1 -9 -2 -10 -4 -2 -1 -10 -3 -18 -5 -8 -2 -69 -20
-135 -40 -66 -20 -124 -38 -130 -40 -5 -1 -17 -5 -25 -8 -32 -12 -166 -59
-180 -63 -43 -10 -175 -60 -178 -66 -2 -5 -9 -8 -16 -8 -10 0 -158 -57 -266
-103 -14 -6 -27 -11 -30 -12 -3 0 -21 -8 -40 -17 -19 -9 -60 -27 -90 -41 -30
-14 -94 -43 -143 -66 -48 -22 -90 -41 -93 -40 -4 0 -10 -3 -13 -8 -3 -6 -40
-26 -81 -47 -105 -52 -184 -96 -340 -188 -126 -75 -359 -225 -370 -239 -3 -3
-23 -18 -45 -32 -116 -77 -132 -92 -116 -111 14 -16 96 -14 128 3 47 25 149
86 160 96 21 18 36 29 118 93 44 34 85 66 91 71 38 30 390 211 411 211 3 0 19
6 36 14 78 35 130 56 140 56 6 0 19 8 30 18 11 9 17 11 12 3 -5 -10 -2 -9 16
2 49 32 623 239 633 229 3 -3 6 -1 6 5 0 6 12 13 28 16 23 4 185 56 232 74 8
4 17 7 20 8 30 8 143 42 215 65 84 27 177 53 182 51 2 0 21 6 43 14 43 15 48
9 28 -28 -6 -12 -13 -31 -15 -42 -6 -39 -5 -172 1 -191 3 -10 8 -38 11 -61 7
-59 51 -214 172 -608 57 -187 106 -344 107 -350 8 -33 38 -133 46 -150 5 -11
11 -31 13 -45 3 -14 28 -101 57 -195 72 -237 91 -298 94 -310 1 -5 7 -26 13
-45 7 -19 23 -75 38 -125 15 -49 29 -97 32 -105 4 -8 5 -19 4 -24 -1 -4 3 -13
8 -20 5 -6 12 -23 14 -36 2 -14 7 -32 10 -40 3 -8 7 -24 9 -35 2 -11 5 -22 8
-25 4 -4 17 -47 34 -115 2 -5 5 -17 8 -25 3 -8 13 -42 23 -75 9 -33 19 -67 22
-75 3 -8 7 -21 9 -28 1 -6 14 -51 29 -100 31 -101 35 -114 35 -124 1 -4 8 -27
16 -50 14 -41 56 -178 110 -368 14 -47 28 -92 31 -100 3 -8 7 -19 8 -25 1 -5
3 -12 4 -15 4 -7 12 -41 18 -72 3 -16 8 -28 12 -28 4 0 8 -8 9 -17 3 -27 6
-41 31 -123 13 -41 22 -75 20 -76 -2 0 2 -8 10 -17 7 -10 11 -17 8 -17 -4 0 0
-18 8 -40 8 -22 15 -42 15 -45 0 -3 2 -10 5 -17 2 -7 29 -98 60 -203 30 -104
61 -192 67 -196 6 -4 21 -4 32 0 12 4 116 6 231 5 242 -1 220 -9 277 106 43
87 171 330 199 378 10 18 19 39 19 47 0 7 4 15 8 17 5 2 47 77 94 168 47 91
97 185 110 210 25 45 97 182 211 400 32 63 76 147 97 185 21 39 55 104 77 145
21 41 41 77 46 78 4 2 7 12 7 22 0 10 3 20 8 22 4 2 31 50 61 108 30 58 66
128 81 155 53 98 74 140 72 148 -1 4 2 7 8 7 5 0 10 4 10 9 0 4 25 55 57 112
31 57 56 110 56 117 0 6 4 12 8 12 4 0 11 10 15 23 4 12 9 24 13 27 3 3 22 37
42 75 49 98 176 339 212 405 17 30 44 82 60 115 17 33 35 66 41 74 5 7 11 18
12 25 1 6 24 52 51 101 97 177 293 553 292 558 -1 1 5 22 12 47 27 98 30 238
5 305 -40 109 -132 204 -229 237 -17 6 -36 14 -42 18 -10 7 -125 50 -149 55
-6 1 -18 5 -26 8 -38 15 -319 90 -381 101 -13 3 -24 5 -24 6 0 1 -9 3 -20 5
-11 1 -78 14 -150 28 -71 15 -143 29 -160 32 -16 2 -40 7 -52 9 -12 3 -46 7
-75 10 -29 4 -62 8 -73 10 -24 5 -93 14 -155 21 -25 3 -65 7 -90 10 -49 7
-103 11 -255 21 -98 6 -503 13 -508 8z m173 -226 c0 8 175 6 196 -2 7 -3 16
-1 19 5 4 5 11 6 17 3 5 -4 62 -8 127 -10 137 -5 239 -11 301 -19 90 -11 126
-15 183 -19 31 -3 62 -8 67 -11 5 -3 32 -8 60 -10 28 -3 55 -7 60 -10 4 -3 25
-7 46 -10 122 -16 374 -84 524 -142 134 -51 270 -115 270 -125 0 -4 6 -8 13
-8 22 0 105 -83 112 -112 6 -23 2 -29 -27 -44 -45 -24 -238 -24 -410 1 -39 5
-79 11 -208 31 -52 8 -111 17 -130 19 -19 2 -44 5 -55 8 -11 3 -47 8 -80 12
-32 3 -62 8 -65 10 -3 1 -36 6 -73 10 -37 3 -78 8 -90 11 -12 2 -42 6 -67 9
-25 2 -58 7 -75 9 -16 3 -55 8 -85 10 -30 3 -55 5 -55 6 0 3 -43 9 -80 11 -22
1 -45 6 -52 11 -7 5 -14 5 -18 -2 -3 -6 -11 -8 -16 -4 -15 9 -58 15 -121 17
-32 1 -58 4 -58 7 0 3 -19 6 -43 6 -23 1 -69 4 -102 7 -98 10 -207 19 -256 21
-25 2 -50 5 -55 8 -13 7 -562 2 -609 -6 -22 -4 -61 -13 -86 -22 -25 -8 -55
-17 -67 -19 -12 -3 -30 -7 -39 -9 -161 -38 -259 -50 -336 -40 -38 5 -50 12
-61 33 -23 46 -7 78 82 166 51 50 75 61 172 80 148 29 192 36 197 31 4 -3 11
-1 18 4 6 5 35 11 63 12 29 2 52 5 52 8 0 3 12 5 28 6 15 1 54 4 87 8 192 23
412 39 567 40 54 1 98 4 98 8 0 4 14 3 30 -2 17 -5 30 -6 30 -2z m115 -566
c54 -14 106 -34 125 -49 81 -66 113 -103 140 -157 26 -54 29 -70 26 -141 -2
-66 -7 -89 -30 -130 -42 -75 -93 -122 -171 -160 -178 -87 -380 -58 -514 73
-139 137 -135 336 11 467 58 52 107 78 188 98 60 16 162 15 225 -1z m660 -777
c17 -6 36 -10 43 -8 6 3 12 -1 12 -8 0 -7 3 -10 6 -6 9 9 92 -50 138 -97 88
-92 124 -251 86 -374 -28 -86 -127 -210 -183 -228 -12 -4 -25 -11 -28 -16 -3
-5 -16 -10 -27 -11 -12 -1 -22 -4 -22 -7 0 -9 -39 -13 -130 -13 -88 0 -168 22
-219 60 -56 43 -106 102 -133 159 -32 69 -52 164 -34 164 6 0 5 4 -3 9 -9 6
-10 11 -3 15 6 4 9 13 5 22 -7 20 15 99 44 149 24 44 119 145 135 145 6 0 22
9 38 20 15 11 30 17 33 13 4 -3 12 -1 19 5 27 22 175 27 223 7z m-1206 -151
c90 -44 143 -125 143 -219 0 -248 -349 -330 -485 -115 -9 14 -18 35 -20 45 -1
11 -5 25 -8 30 -12 21 6 145 21 145 6 0 10 6 10 13 0 20 59 76 102 98 21 11
38 16 38 12 0 -4 6 -1 13 6 20 20 133 11 186 -15z m428 -1104 c41 -13 159
-107 148 -118 -3 -3 2 -16 10 -29 9 -13 16 -47 16 -77 2 -95 -54 -182 -141
-223 -42 -19 -92 -33 -101 -27 -5 3 -9 2 -9 -3 0 -4 -15 -7 -32 -6 -18 1 -33
2 -33 3 0 1 -11 3 -25 5 -54 8 -66 11 -100 27 -70 32 -133 115 -143 190 -14
103 56 208 168 253 67 27 167 29 242 5z"/>
<path d="M8889 10405 c34 -25 65 -45 70 -45 5 0 11 -4 13 -8 2 -5 32 -30 68
-55 104 -75 108 -78 222 -164 60 -46 111 -83 114 -83 4 0 47 -35 76 -62 10
-10 21 -18 26 -18 4 -1 25 -19 47 -40 22 -22 46 -40 53 -40 23 0 76 27 114 58
l38 30 -35 26 c-19 15 -35 25 -35 22 0 -5 -63 34 -86 53 -7 6 -15 7 -18 4 -3
-4 -6 -1 -6 5 0 7 -4 12 -10 12 -5 0 -54 26 -107 58 -54 32 -123 72 -153 88
-30 16 -56 32 -58 37 -2 4 -12 7 -22 7 -10 0 -20 4 -22 8 -1 4 -46 29 -98 54
-88 43 -119 56 -193 87 -58 23 -57 9 2 -34z"/>
<path d="M3399 10016 c-2 -2 -38 -6 -80 -9 -42 -3 -94 -13 -115 -22 -22 -9
-39 -16 -39 -15 0 1 -12 -3 -27 -9 -16 -6 -28 -15 -28 -21 0 -5 -6 -10 -14
-10 -20 0 -84 -77 -107 -129 -41 -93 -43 -229 -5 -369 22 -81 41 -104 80 -99
44 6 80 26 166 95 41 34 87 68 102 76 25 15 28 15 51 -6 21 -20 73 -108 68
-115 -7 -14 4 -41 23 -55 52 -38 107 -26 169 35 79 80 128 179 103 212 -6 8
-31 18 -55 21 -57 7 -144 37 -148 51 -2 6 5 14 16 18 27 8 159 139 170 168 22
56 -13 119 -73 133 -17 5 -34 9 -38 10 -5 1 -9 2 -10 4 -8 5 -102 21 -144 24
-22 1 -45 6 -51 9 -6 4 -12 5 -14 3z m127 -141 c30 -7 58 -16 61 -19 8 -7 -16
-30 -87 -86 -59 -47 -149 -110 -155 -110 -3 0 -11 -5 -18 -10 -7 -6 -48 -36
-92 -67 -44 -32 -91 -67 -104 -80 -14 -12 -28 -20 -32 -18 -4 3 -10 26 -14 52
-28 186 27 295 167 338 55 17 203 17 274 0z"/>
<path d="M9854 9797 c-47 -14 -142 -65 -164 -87 -3 -3 -23 -17 -45 -32 -22
-15 -59 -44 -81 -65 -22 -21 -65 -59 -95 -84 -85 -73 -430 -424 -536 -545 -75
-87 -144 -164 -178 -201 -22 -24 -44 -49 -50 -56 -19 -23 -130 -152 -135 -157
-3 -3 -53 -61 -110 -130 -58 -69 -107 -127 -110 -130 -5 -5 -73 -87 -110 -133
-8 -11 -27 -33 -43 -51 -15 -17 -30 -35 -35 -41 -9 -12 -80 -101 -107 -134
-11 -13 -28 -33 -37 -43 -10 -10 -15 -18 -11 -18 4 0 -3 -9 -14 -20 -12 -11
-34 -36 -50 -57 -15 -21 -30 -40 -33 -43 -4 -3 -33 -39 -66 -80 -32 -41 -66
-82 -74 -91 -8 -10 -20 -24 -25 -31 -14 -19 -77 -99 -95 -122 -8 -10 -23 -27
-32 -38 -10 -10 -18 -20 -18 -22 0 -3 -37 -51 -82 -108 -46 -57 -95 -120 -110
-138 -14 -19 -46 -60 -69 -90 -24 -30 -46 -56 -51 -58 -4 -2 -8 -10 -8 -17 0
-7 -4 -15 -8 -17 -5 -1 -28 -30 -53 -63 -24 -33 -46 -62 -49 -65 -4 -3 -19
-23 -36 -45 -16 -22 -35 -46 -41 -55 -7 -8 -39 -51 -72 -95 -33 -44 -66 -87
-74 -95 -33 -36 -30 -40 20 -34 80 10 267 16 326 12 21 -2 41 0 43 4 3 4 11 5
18 2 17 -7 217 -12 234 -6 6 2 12 13 12 23 0 10 4 19 10 19 5 0 9 4 7 10 -3
13 74 91 84 84 5 -3 9 -1 9 5 0 17 99 39 164 36 35 -2 84 -12 109 -23 44 -19
117 -78 115 -91 -1 -3 4 -19 10 -34 7 -16 12 -37 12 -47 0 -25 5 -27 70 -34
30 -3 66 -8 80 -10 23 -4 52 -8 175 -22 22 -2 54 -6 70 -9 17 -2 53 -7 80 -10
28 -4 61 -9 75 -11 14 -2 41 -7 60 -10 19 -3 87 -14 150 -24 152 -25 187 -30
235 -36 22 -3 55 -9 73 -14 31 -8 39 -3 32 25 -4 15 -1 126 4 151 27 137 127
266 252 325 77 37 115 44 225 43 66 -1 100 -6 145 -24 189 -75 302 -237 302
-430 0 -85 -10 -125 -49 -204 -17 -32 -29 -59 -27 -60 4 -3 97 -25 125 -30 21
-4 264 -61 313 -73 14 -4 32 -7 40 -8 8 -1 26 -6 40 -10 14 -5 31 -10 38 -11
7 -1 88 -21 180 -44 91 -24 173 -44 182 -45 8 -2 16 -4 18 -5 1 -2 7 -4 12 -5
6 -1 11 -3 13 -5 1 -1 11 -3 22 -4 39 -5 134 -36 140 -46 4 -6 10 -8 15 -5 5
3 19 1 30 -5 12 -6 29 -13 38 -16 9 -2 69 -22 132 -43 118 -41 320 -95 400
-108 25 -4 88 -7 140 -7 82 0 102 3 145 25 55 28 89 71 106 133 15 53 15 215
1 286 -6 30 -14 73 -17 95 -3 22 -8 48 -11 57 -3 9 -7 27 -9 40 -3 13 -9 46
-15 73 -6 28 -12 59 -14 70 -2 11 -14 67 -26 125 -26 124 -29 136 -36 174 -2
16 -7 33 -10 37 -2 4 -7 29 -10 55 -3 27 -8 53 -12 59 -7 11 -7 12 -17 69 -4
22 -11 51 -17 65 -5 14 -9 26 -8 26 3 0 -20 87 -27 105 -8 18 -6 14 -22 70
-14 48 -91 244 -136 345 -88 199 -275 536 -396 717 -33 48 -59 90 -59 93 0 4
-6 12 -12 19 -7 8 -20 23 -28 36 -57 83 -186 256 -197 263 -7 4 -13 14 -13 22
0 7 -3 15 -7 17 -5 2 -32 32 -61 68 -86 105 -105 128 -145 172 -22 24 -54 61
-73 84 -52 63 -290 300 -384 384 -46 41 -90 80 -96 85 -6 6 -26 21 -44 35 -18
14 -38 30 -44 35 -20 19 -116 85 -123 85 -3 0 -14 6 -22 14 -32 26 -146 81
-163 78 -5 -1 -8 1 -8 6 0 10 -51 10 -86 -1z m151 -132 c189 -90 523 -378 725
-624 19 -23 48 -57 64 -74 15 -18 45 -55 66 -83 21 -28 44 -57 52 -65 38 -39
303 -419 344 -494 6 -11 36 -60 66 -110 52 -87 172 -305 173 -315 0 -3 17 -39
36 -80 31 -64 62 -142 64 -160 0 -3 3 -9 6 -15 8 -12 21 -79 24 -122 3 -30 1
-32 -17 -22 -18 9 -152 204 -153 221 0 4 -6 13 -12 20 -7 6 -13 18 -13 25 0 7
-3 13 -8 13 -4 0 -12 9 -17 19 -41 80 -60 111 -67 111 -4 0 -8 5 -8 10 0 27
-309 510 -331 518 -5 2 -9 8 -9 13 0 22 -220 244 -376 379 -77 67 -172 140
-183 140 -6 0 -11 4 -11 8 0 11 -200 140 -285 184 -161 83 -326 116 -419 83
-32 -11 -200 -117 -216 -136 -3 -3 -72 -57 -155 -119 -165 -125 -169 -128
-194 -151 -10 -9 -40 -31 -67 -49 -27 -19 -54 -41 -61 -49 -7 -9 -13 -12 -13
-8 0 4 -11 -4 -25 -18 -14 -14 -30 -25 -35 -25 -5 0 -15 -6 -22 -12 -34 -32
-108 -61 -108 -43 0 19 103 198 132 229 10 11 18 23 18 27 0 7 73 100 122 154
14 17 36 41 48 55 114 133 460 456 564 526 85 58 224 76 301 39z m-142 -867
c51 -27 87 -92 87 -158 0 -51 -19 -88 -66 -129 -30 -27 -43 -32 -78 -30 -53 3
-80 13 -105 38 -80 80 -63 223 34 279 26 15 100 15 128 0z m299 -678 c193 -35
361 -181 414 -360 27 -89 23 -216 -10 -310 -48 -141 -201 -279 -355 -320 -115
-30 -267 -15 -377 37 -116 56 -212 157 -258 273 -25 63 -27 75 -31 165 -4 89
12 164 50 237 29 56 87 137 98 137 4 1 20 13 35 27 38 36 153 92 220 108 78
17 140 19 214 6z m-1477 -156 c32 -3 70 -10 84 -16 14 -5 33 -11 42 -13 27 -6
94 -51 131 -89 47 -48 85 -123 103 -201 25 -108 20 -268 -12 -346 -13 -33 -20
-39 -45 -39 -49 0 -185 78 -277 159 -13 12 -30 21 -36 21 -15 0 -68 -77 -72
-104 -2 -11 -8 -25 -13 -31 -5 -7 -7 -15 -4 -18 3 -3 3 -11 -1 -17 -4 -7 -8
-37 -9 -67 -1 -35 -7 -58 -16 -64 -14 -9 -88 -6 -135 5 -36 8 -162 63 -175 76
-3 3 -17 11 -33 19 -55 29 -88 67 -94 109 -5 34 -1 43 25 70 18 19 45 33 69
38 39 7 106 37 130 58 30 27 43 37 43 33 0 -3 18 12 41 33 37 34 40 39 28 59
-8 11 -16 21 -19 21 -7 0 -56 38 -82 63 -10 9 -20 17 -23 17 -8 0 -138 103
-152 120 -20 25 -10 34 68 57 41 13 74 22 74 22 0 0 11 2 25 5 49 11 86 16
170 22 47 4 87 8 89 10 2 2 7 1 11 -1 4 -2 33 -7 65 -11z m440 -1008 c43 -33
53 -52 51 -96 -2 -45 -24 -76 -70 -101 -94 -50 -208 14 -204 114 1 20 4 37 8
37 4 0 10 8 12 18 7 26 84 60 130 57 23 -2 52 -14 73 -29z m1628 -365 c37 -14
70 -67 70 -111 0 -88 -118 -149 -195 -102 -38 24 -65 66 -63 102 1 34 16 80
24 80 4 0 16 9 28 19 32 30 77 34 136 12z"/>
<path d="M4330 9653 c-48 -8 -95 -26 -129 -52 -41 -31 -81 -69 -81 -78 0 -4
-7 -14 -15 -23 -26 -29 -57 -132 -60 -200 -5 -124 35 -237 110 -311 49 -49 62
-59 69 -52 3 4 6 2 6 -4 0 -5 19 -16 43 -23 301 -91 527 306 339 596 -67 102
-180 161 -282 147z"/>
<path d="M1814 9348 c-2 -3 -12 -5 -22 -3 -9 1 -23 -2 -29 -8 -7 -5 -13 -7
-13 -3 0 18 -125 -60 -171 -107 -78 -78 -123 -160 -367 -667 -9 -19 -20 -37
-25 -38 -4 -2 -5 -8 -1 -13 3 -5 -4 -22 -15 -38 -12 -16 -21 -33 -21 -39 0 -5
-20 -52 -43 -103 -24 -52 -70 -159 -101 -239 -32 -80 -62 -154 -67 -165 -23
-54 -52 -132 -53 -145 -1 -8 -8 -25 -14 -37 -7 -13 -10 -23 -6 -23 3 0 2 -6
-3 -12 -6 -7 -18 -38 -27 -68 -10 -30 -20 -62 -23 -70 -3 -8 -7 -19 -8 -25 -2
-5 -19 -64 -38 -130 -37 -123 -82 -297 -91 -350 -3 -16 -14 -75 -25 -130 -20
-102 -37 -224 -48 -343 -13 -135 -5 -523 11 -550 2 -4 6 -31 10 -60 7 -59 52
-236 68 -267 46 -88 143 -109 333 -71 11 3 22 5 25 7 3 1 10 3 15 4 6 1 23 7
39 14 31 12 314 99 406 124 30 9 120 34 200 57 80 23 155 42 168 43 12 0 22 4
22 7 0 3 11 7 26 8 14 1 33 6 43 11 10 6 29 12 42 15 43 9 224 57 239 63 8 3
24 7 35 8 11 2 56 13 100 25 166 45 464 118 548 135 10 3 26 6 35 9 17 5 63
15 92 20 8 2 34 8 56 15 23 6 62 15 85 20 24 5 55 12 69 15 14 4 39 9 55 11
17 3 37 8 45 10 8 2 26 6 40 9 14 3 36 7 50 10 14 4 61 13 105 22 44 8 91 18
105 20 14 3 36 7 50 9 14 2 25 5 25 6 0 1 9 3 20 4 11 1 58 10 105 18 81 16
112 21 190 33 19 2 44 6 55 8 11 2 45 7 75 11 30 4 62 9 70 10 8 2 42 6 75 10
33 3 74 8 90 10 125 15 216 20 390 19 110 -1 214 -4 230 -8 l30 -6 -31 27
c-17 16 -44 38 -60 50 -16 12 -40 31 -54 43 -45 38 -64 54 -140 114 -41 32
-79 64 -85 70 -5 6 -26 23 -45 37 -19 15 -45 35 -56 45 -21 18 -47 40 -144
119 -25 20 -65 53 -89 74 -23 20 -51 43 -61 51 -24 19 -97 80 -120 100 -10 8
-35 29 -56 45 -34 27 -82 66 -239 198 -55 47 -185 158 -258 221 -27 22 -54 46
-60 51 -16 14 -183 159 -233 204 -163 145 -211 189 -310 286 -62 61 -131 132
-153 160 -40 49 -53 85 -28 81 13 -2 109 -48 117 -56 3 -3 39 -27 80 -54 41
-27 77 -53 78 -58 2 -4 8 -8 14 -8 6 0 23 -10 38 -22 15 -13 37 -30 49 -38 13
-8 55 -40 95 -70 40 -30 88 -66 106 -80 18 -14 49 -37 69 -53 20 -15 47 -36
61 -46 14 -10 70 -54 125 -96 55 -43 118 -92 140 -109 22 -17 42 -33 45 -36 3
-3 25 -21 50 -40 25 -19 52 -40 60 -47 8 -7 92 -73 185 -148 94 -75 172 -141
173 -146 2 -5 10 -9 17 -9 7 0 15 -3 17 -8 2 -4 26 -25 53 -47 28 -22 57 -46
67 -55 9 -8 29 -25 45 -37 15 -12 84 -67 153 -124 171 -139 193 -157 290 -235
47 -37 92 -75 101 -83 9 -9 25 -23 35 -31 11 -8 44 -35 74 -60 30 -25 63 -52
74 -60 11 -8 30 -25 43 -37 13 -13 28 -23 33 -23 6 0 10 -4 10 -9 0 -17 44
-25 143 -26 90 0 119 7 81 22 -9 3 -26 15 -38 27 -11 12 -39 35 -60 51 -21 17
-44 35 -50 40 -6 6 -60 51 -121 100 -60 49 -112 92 -115 95 -3 3 -25 21 -50
40 -25 19 -50 39 -56 45 -6 5 -28 24 -48 40 -21 17 -52 42 -70 56 -17 15 -87
72 -156 128 -69 56 -134 110 -145 119 -11 9 -42 35 -70 57 -27 22 -52 42 -55
45 -3 3 -41 34 -85 70 -44 36 -82 68 -83 72 -2 5 -8 6 -13 2 -5 -3 -9 -1 -9 4
0 4 -52 51 -116 103 -64 52 -124 101 -134 109 -10 8 -35 29 -56 45 -22 17 -49
40 -62 53 -13 12 -27 22 -32 22 -5 0 -14 8 -19 18 -6 9 -11 13 -11 9 0 -4 -10
3 -22 16 -13 13 -41 36 -63 53 -22 16 -42 32 -45 35 -3 4 -32 29 -65 56 -33
26 -69 56 -80 65 -11 9 -51 42 -90 73 -38 31 -79 64 -90 73 -11 10 -42 35 -70
57 -27 21 -54 44 -60 49 -5 6 -32 29 -60 51 -27 21 -59 47 -70 57 -11 9 -50
41 -86 70 -108 87 -180 146 -208 170 -16 13 -141 115 -366 297 -77 62 -145
120 -151 127 -6 8 -16 14 -22 14 -6 0 -12 3 -14 8 -3 8 -88 77 -133 108 -62
42 -167 93 -210 101 -11 2 -27 6 -35 10 -29 12 -160 21 -166 11z m264 -266
c34 -18 99 -57 143 -87 45 -30 83 -55 85 -55 2 0 41 -29 88 -65 88 -68 156
-131 156 -145 0 -5 3 -15 6 -24 11 -29 -40 -12 -121 39 -22 13 -47 28 -55 32
-8 4 -56 30 -106 59 -95 55 -244 127 -289 140 -5 1 -24 7 -41 12 -50 15 -106
-24 -172 -120 -40 -58 -132 -236 -132 -253 0 -8 -4 -15 -10 -15 -5 0 -10 -6
-10 -13 0 -7 -16 -48 -34 -91 -19 -44 -33 -83 -30 -88 3 -4 0 -8 -5 -8 -6 0
-10 -3 -9 -7 1 -5 -5 -21 -12 -38 -7 -16 -14 -34 -16 -40 -2 -5 -33 -95 -69
-200 -37 -104 -71 -206 -77 -225 -23 -80 -77 -258 -90 -296 -8 -23 -14 -48
-12 -57 1 -10 -3 -17 -9 -17 -5 0 -7 -3 -4 -7 4 -3 2 -12 -4 -19 -6 -8 -9 -21
-5 -29 3 -8 2 -15 -2 -15 -8 0 -57 -176 -52 -182 2 -2 -2 -13 -8 -24 -6 -12
-14 -36 -17 -55 -3 -18 -10 -38 -14 -44 -5 -5 -7 -18 -6 -27 2 -10 0 -18 -4
-18 -4 0 -8 -6 -8 -12 0 -7 -6 -33 -13 -58 -7 -25 -13 -52 -15 -60 -2 -8 -24
-97 -49 -197 -48 -190 -77 -256 -148 -335 -109 -122 -170 17 -144 330 3 40 11
93 16 119 6 25 8 48 5 51 -2 3 0 11 6 18 6 8 9 21 5 29 -3 8 -1 15 4 15 6 0 9
3 8 8 -1 5 11 80 17 102 1 3 5 19 9 35 4 17 14 57 23 90 8 33 17 67 18 75 2 8
4 15 5 15 1 0 3 7 5 15 8 40 89 298 125 400 23 63 43 122 45 130 4 16 76 193
102 250 9 19 16 41 16 48 0 6 4 12 9 12 5 0 6 5 3 10 -3 6 -1 10 4 10 6 0 10
3 9 8 -1 7 17 53 52 127 17 36 40 93 42 105 1 3 15 28 31 55 16 28 41 75 55
105 51 114 216 343 298 414 19 17 65 47 101 67 63 35 69 37 152 35 75 -2 94
-7 149 -34z m110 -966 c73 -38 113 -102 107 -171 -2 -17 -3 -36 -4 -42 -2 -21
-69 -90 -104 -106 -86 -41 -200 -22 -267 44 -23 23 -39 44 -36 47 3 3 1 11 -6
19 -15 18 -12 87 6 121 21 40 66 80 111 97 50 18 148 14 193 -9z m878 -284
c77 -24 157 -86 200 -154 63 -99 81 -240 44 -340 -10 -27 -15 -48 -12 -48 4 0
2 -4 -3 -8 -6 -4 -17 -20 -25 -36 -8 -16 -28 -41 -44 -55 -15 -14 -35 -33 -45
-42 -19 -20 -101 -62 -101 -53 0 4 -7 0 -16 -7 -11 -9 -43 -13 -98 -13 -68 1
-92 6 -146 32 -36 16 -85 49 -108 73 -42 41 -109 155 -98 166 3 3 1 14 -5 25
-22 42 -3 248 23 248 4 0 7 3 6 8 -4 15 35 74 77 115 46 45 111 82 159 91 16
3 31 7 34 10 7 8 123 -1 158 -12z m-1101 -477 c44 -9 128 -45 133 -57 2 -4 9
-8 16 -8 14 0 116 -99 116 -113 0 -5 9 -21 20 -36 19 -27 21 -35 39 -118 28
-140 -38 -303 -157 -390 -30 -21 -58 -37 -63 -35 -5 1 -9 -2 -9 -7 0 -12 -105
-40 -169 -44 -47 -4 -127 7 -178 22 -2 1 -6 2 -10 3 -28 7 -162 99 -163 111 0
4 -9 18 -21 30 -17 19 -53 84 -59 109 -1 4 -7 27 -14 50 -20 71 -10 167 25
249 12 27 25 49 30 49 5 0 9 6 9 14 0 19 103 110 149 132 92 45 207 59 306 39z
m1850 -313 c90 -47 137 -116 137 -199 1 -88 -44 -154 -137 -206 -33 -18 -56
-22 -130 -22 -81 0 -95 3 -143 29 -185 103 -164 334 36 408 64 24 182 19 237
-10z m-1008 -360 c75 -41 83 -146 14 -199 -49 -37 -145 -21 -183 31 -19 27
-30 84 -17 92 5 3 7 9 5 13 -8 12 52 69 77 74 31 6 82 0 104 -11z"/>
<path d="M2043 8103 c-36 -7 -90 -67 -95 -107 -9 -76 52 -146 127 -146 71 0
148 109 112 158 -5 6 -6 12 -3 12 4 0 -2 14 -14 31 -29 40 -78 60 -127 52z"/>
<path d="M3614 6944 c-46 -16 -73 -40 -94 -87 -43 -95 29 -205 139 -212 81 -4
157 54 167 129 8 58 1 86 -33 123 -49 55 -110 71 -179 47z m81 -89 c91 -37 50
-165 -48 -152 -21 3 -47 13 -57 22 -39 36 -27 104 23 129 40 19 40 19 82 1z"/>
<path d="M3400 8928 c-103 -29 -161 -135 -123 -226 15 -36 69 -92 89 -92 8 0
14 -4 14 -8 0 -9 10 -11 82 -12 26 -1 56 3 66 9 11 6 22 7 26 4 3 -3 6 -1 6 5
0 7 6 12 13 12 14 0 43 31 66 70 7 13 13 48 13 77 -1 73 -46 132 -122 156 -58
19 -79 20 -130 5z"/>
<path d="M4392 8460 c-295 -77 -401 -309 -219 -477 59 -55 144 -97 238 -119
13 -3 69 -8 124 -9 147 -6 258 22 361 91 246 164 143 443 -193 520 -70 16
-238 13 -311 -6z"/>
<path d="M4932 7711 c-64 -54 -62 -179 2 -233 61 -50 138 19 138 123 -1 99
-81 162 -140 110z"/>
<path d="M6000 6365 c0 -6 -71 -10 -173 -11 -173 -1 -448 -10 -594 -19 -43 -3
-111 -7 -150 -10 -40 -2 -77 -6 -82 -10 -5 -3 -12 -1 -16 5 -4 6 -12 7 -18 3
-7 -4 -25 -8 -42 -9 -61 -3 -181 -14 -220 -20 -22 -3 -71 -7 -110 -9 -38 -2
-70 -5 -70 -6 0 -1 -18 -3 -40 -6 -48 -4 -107 -11 -155 -18 -47 -6 -104 -13
-170 -20 -30 -3 -66 -8 -80 -11 -14 -3 -38 -7 -55 -9 -46 -6 -97 -14 -125 -19
-14 -2 -47 -7 -75 -11 -27 -3 -59 -8 -70 -11 -11 -2 -36 -6 -55 -8 -19 -3 -84
-14 -145 -26 -60 -11 -121 -23 -135 -25 -31 -5 -151 -29 -245 -50 -38 -8 -83
-18 -99 -21 -16 -2 -32 -6 -35 -8 -3 -2 -22 -7 -41 -10 -30 -5 -361 -84 -430
-103 -14 -4 -29 -7 -35 -8 -5 0 -16 -4 -22 -8 -7 -5 -13 -6 -13 -3 0 3 -12 1
-27 -5 -28 -11 -148 -45 -189 -54 -45 -10 -430 -133 -534 -170 -41 -15 -82
-28 -90 -29 -8 -1 -25 -8 -38 -14 -12 -7 -22 -9 -22 -5 0 4 -4 3 -8 -2 -5 -8
-104 -44 -162 -60 -3 -1 -18 -7 -33 -13 -16 -7 -33 -12 -38 -12 -5 0 -9 -4 -9
-10 0 -5 -3 -9 -7 -8 -12 3 -93 -25 -93 -31 0 -4 -8 -7 -17 -8 -20 -2 -179
-67 -395 -161 -76 -33 -138 -58 -138 -55 0 2 -7 -3 -16 -11 -8 -9 -24 -16 -35
-16 -10 0 -19 -4 -19 -10 0 -5 -9 -10 -20 -10 -11 0 -20 -4 -20 -10 0 -5 -6
-10 -13 -10 -7 0 -38 -12 -68 -27 -30 -15 -57 -26 -61 -25 -5 1 -8 -3 -8 -8 0
-6 -5 -10 -11 -10 -6 0 -57 -22 -113 -49 -55 -26 -109 -51 -118 -54 -23 -8
-23 -26 0 -34 9 -3 35 -14 57 -23 34 -15 248 -105 310 -130 11 -4 46 -20 78
-34 32 -14 60 -26 63 -26 3 0 30 -11 60 -25 30 -14 57 -25 59 -25 3 0 27 -10
53 -21 134 -60 295 -124 305 -121 4 1 7 -3 7 -8 0 -6 6 -10 14 -10 12 0 61
-19 145 -57 18 -8 39 -16 45 -18 12 -2 55 -19 101 -40 16 -7 40 -16 53 -20 12
-3 22 -10 22 -15 0 -7 -87 -233 -109 -285 -5 -11 -41 -101 -80 -200 -39 -99
-76 -193 -82 -210 -7 -16 -13 -32 -14 -35 -1 -3 -7 -18 -13 -33 -7 -16 -12
-31 -12 -33 0 -3 -8 -24 -18 -47 -11 -23 -29 -69 -42 -102 -12 -33 -28 -73
-35 -90 -7 -16 -21 -52 -30 -80 -10 -27 -22 -54 -27 -59 -4 -6 -8 -18 -8 -28
0 -10 -5 -18 -12 -18 -6 0 -9 -3 -5 -6 3 -4 0 -22 -8 -40 -16 -38 -16 -38 17
-25 13 5 28 10 33 11 6 1 19 7 30 13 11 6 25 12 30 13 9 2 167 65 210 83 11 5
58 24 105 41 47 18 99 39 115 45 17 7 89 34 160 60 72 26 144 52 160 58 17 7
32 12 35 13 3 0 18 6 33 12 15 7 40 15 55 18 15 4 32 11 38 15 6 5 21 11 35
13 13 3 26 5 29 6 3 2 8 2 13 1 4 0 7 3 7 7 0 5 6 9 13 9 10 0 216 64 257 80
8 3 20 7 25 9 6 1 48 14 95 29 47 15 92 29 100 30 8 2 15 4 15 5 0 1 7 3 15 5
8 3 78 23 155 45 141 42 161 47 204 56 13 3 32 9 43 15 10 5 18 7 18 3 0 -3 7
-1 15 6 8 7 15 10 15 7 0 -3 23 1 52 9 28 9 59 17 67 19 9 2 36 8 61 15 25 7
56 14 69 17 14 2 28 6 32 8 6 4 58 17 169 41 13 3 63 14 110 25 47 11 92 22
100 24 85 20 459 95 497 100 12 2 34 6 50 9 15 4 42 8 58 11 17 3 67 12 113
20 46 8 88 13 93 10 5 -4 9 -2 9 4 0 6 14 9 30 7 17 -2 30 0 30 3 0 4 8 7 18
7 17 1 83 10 132 19 14 2 45 7 70 10 104 13 129 16 150 20 12 2 49 7 83 11 34
3 73 8 87 9 76 10 158 18 183 19 15 1 27 3 27 6 0 3 17 5 38 6 33 0 150 10
242 19 49 5 200 16 290 21 41 2 134 7 205 11 72 4 342 7 600 7 484 0 674 -6
933 -29 37 -3 96 -8 132 -10 36 -3 83 -7 105 -10 22 -3 65 -7 95 -10 30 -3 75
-7 100 -10 25 -3 65 -7 90 -10 25 -2 45 -4 45 -5 0 -1 16 -3 35 -6 19 -2 53
-7 75 -10 22 -3 57 -7 78 -9 41 -4 86 -11 127 -20 14 -3 43 -7 65 -10 22 -3
51 -7 65 -10 65 -12 97 -18 125 -20 17 -2 30 -4 30 -5 0 -1 9 -3 20 -4 11 -2
36 -6 55 -11 19 -4 44 -9 55 -11 34 -5 79 -14 105 -20 14 -4 36 -8 50 -10 32
-4 121 -24 140 -31 8 -4 19 -5 24 -4 4 1 22 -3 40 -8 17 -6 45 -13 61 -15 68
-12 434 -109 583 -155 18 -5 33 -10 35 -10 1 0 9 -2 17 -5 8 -2 42 -12 75 -21
33 -10 87 -26 120 -37 58 -19 72 -24 87 -27 11 -2 260 -90 278 -98 8 -3 20 -7
25 -9 20 -6 171 -62 207 -77 20 -8 39 -13 42 -9 3 3 6 1 6 -4 0 -9 56 -34 77
-36 5 0 25 -9 45 -19 21 -10 44 -19 53 -19 8 0 15 -4 15 -8 0 -5 6 -9 13 -9
17 0 347 -149 515 -232 78 -39 147 -71 152 -71 6 0 10 -5 10 -12 0 -6 3 -9 6
-5 4 3 26 -5 50 -18 24 -14 44 -21 44 -17 0 4 4 3 8 -3 10 -14 49 -35 54 -29
5 4 -12 57 -41 129 -6 17 -16 44 -22 60 -6 17 -15 39 -20 50 -5 11 -34 88 -65
170 -31 83 -72 191 -91 240 -19 50 -35 95 -36 100 -2 6 -19 53 -39 105 -205
538 -198 518 -184 528 6 5 43 20 81 33 39 13 72 26 75 29 3 3 12 6 20 8 16 3
221 77 255 92 45 20 432 163 465 172 19 6 40 14 45 18 6 4 28 13 50 20 22 7
45 15 50 19 6 3 13 6 18 7 4 1 8 2 10 4 1 1 9 3 17 5 8 2 53 18 100 36 47 17
112 42 144 54 42 16 55 24 45 31 -8 5 -18 9 -24 10 -5 1 -82 29 -170 62 -198
75 -465 172 -485 177 -8 2 -16 4 -17 5 -2 2 -6 3 -10 5 -5 1 -15 5 -23 8 -30
13 -534 179 -658 217 -69 21 -130 36 -134 34 -4 -3 -8 -1 -8 4 0 6 -52 24
-112 38 -5 1 -9 2 -10 4 -2 1 -10 3 -18 5 -8 1 -37 10 -65 18 -45 14 -109 33
-250 73 -182 51 -643 170 -731 188 -10 3 -59 14 -108 26 -50 11 -99 22 -110
25 -12 2 -21 4 -21 5 0 2 -8 3 -85 19 -82 15 -99 19 -123 27 -12 4 -33 8 -47
10 -14 2 -47 8 -75 13 -27 6 -63 13 -80 16 -16 3 -46 10 -65 15 -19 5 -51 11
-70 14 -19 3 -46 8 -60 11 -14 2 -36 7 -50 10 -14 2 -41 7 -60 10 -19 3 -55
10 -80 15 -25 5 -61 12 -80 14 -19 3 -60 10 -90 16 -30 6 -71 13 -90 16 -19 3
-60 9 -90 14 -30 6 -72 12 -92 15 -21 3 -55 7 -75 10 -21 3 -63 9 -93 15 -30
5 -77 12 -105 15 -64 8 -97 13 -143 19 -59 9 -145 18 -174 19 -16 0 -28 3 -28
6 0 3 -17 7 -38 7 -20 1 -59 4 -87 7 -27 3 -75 8 -105 12 -30 3 -73 8 -95 10
-44 5 -142 14 -220 20 -27 2 -81 7 -120 10 -115 10 -175 14 -285 20 -58 3
-123 7 -146 10 -64 6 -390 17 -607 19 -108 2 -199 5 -202 7 -2 3 -31 2 -65 -1
-35 -3 -64 -2 -70 4 -6 6 -10 6 -10 1z m725 -179 c208 -10 344 -18 390 -21 28
-3 91 -7 140 -10 50 -3 108 -8 130 -10 22 -2 74 -7 115 -9 41 -3 93 -8 115
-11 22 -2 67 -7 100 -10 33 -3 76 -8 95 -10 19 -3 62 -8 95 -11 133 -14 216
-24 245 -29 14 -2 49 -7 79 -10 30 -4 63 -8 74 -11 10 -2 45 -6 76 -9 31 -4
63 -8 71 -10 8 -2 35 -7 60 -10 25 -3 59 -8 75 -11 17 -3 46 -7 65 -10 19 -2
46 -6 60 -9 14 -2 43 -7 65 -10 23 -3 52 -7 65 -10 79 -15 149 -28 175 -31 17
-2 41 -6 55 -9 14 -4 36 -8 50 -10 79 -12 94 -15 110 -20 10 -3 31 -8 46 -10
42 -6 86 -14 114 -21 14 -4 34 -8 45 -10 11 -1 31 -5 45 -7 64 -14 222 -47
285 -61 39 -9 81 -19 95 -22 14 -3 38 -7 53 -10 16 -2 32 -6 37 -9 4 -3 25 -7
46 -11 22 -3 53 -10 69 -15 24 -7 231 -58 305 -74 8 -2 15 -4 15 -5 0 -1 7 -3
15 -5 21 -5 142 -35 160 -40 59 -17 137 -38 150 -40 8 -2 15 -4 15 -5 0 -2 16
-6 55 -13 14 -3 25 -6 25 -7 0 -1 7 -3 15 -5 115 -30 476 -138 775 -233 28 -9
52 -16 55 -17 3 -1 12 -4 20 -8 8 -3 40 -13 70 -22 30 -9 63 -20 72 -26 10 -5
26 -9 36 -9 10 0 22 -3 26 -7 3 -4 12 -8 19 -9 14 -3 183 -61 212 -74 11 -4
29 -11 40 -13 18 -5 169 -59 239 -86 16 -6 27 -13 25 -15 -2 -1 -62 -24 -134
-50 -71 -26 -139 -51 -150 -56 -26 -11 -58 -20 -69 -19 -5 0 -12 -3 -15 -8 -3
-4 -31 -17 -61 -27 -30 -11 -66 -24 -80 -29 -14 -6 -29 -11 -35 -13 -20 -5
-501 -186 -533 -201 -18 -8 -41 -15 -51 -16 -21 -1 -19 -11 22 -117 14 -36 39
-103 57 -150 17 -47 35 -94 40 -105 5 -11 32 -81 59 -155 28 -74 64 -171 81
-215 56 -146 72 -190 73 -202 0 -7 4 -13 9 -13 4 0 8 -6 8 -13 0 -8 15 -53 34
-100 33 -85 33 -96 -2 -78 -18 10 -95 45 -177 81 -106 47 -142 63 -191 86 -28
13 -54 24 -58 24 -3 0 -28 9 -54 21 -70 31 -78 34 -192 79 -58 23 -113 45
-122 51 -10 5 -25 9 -33 9 -8 0 -23 4 -33 10 -9 5 -57 23 -107 41 -49 17 -103
38 -120 45 -16 7 -33 10 -37 8 -4 -3 -8 0 -8 5 0 6 -3 10 -7 9 -12 -3 -113 25
-113 32 0 3 -10 7 -22 7 -13 1 -32 7 -43 12 -16 8 -109 37 -150 47 -5 1 -48
14 -95 29 -88 26 -319 90 -361 99 -13 3 -59 15 -102 26 -43 11 -82 18 -87 15
-5 -3 -11 -1 -14 4 -3 5 -23 12 -43 17 -21 4 -40 8 -43 9 -3 1 -25 5 -50 9
-25 5 -49 11 -54 14 -6 3 -19 6 -30 7 -12 1 -37 6 -56 10 -19 4 -42 9 -50 10
-8 1 -26 5 -40 8 -14 4 -38 9 -55 11 -16 3 -64 11 -105 20 -41 8 -91 17 -110
20 -19 3 -46 8 -60 10 -34 7 -204 33 -260 41 -25 3 -56 8 -70 10 -14 2 -43 6
-65 9 -87 11 -131 17 -155 21 -14 2 -52 6 -85 10 -97 9 -167 16 -210 21 -50 6
-116 11 -225 19 -47 3 -107 8 -135 11 -136 13 -530 24 -850 23 -343 0 -458 -4
-472 -12 -7 -4 -14 -3 -18 3 -4 6 -10 8 -14 5 -5 -2 -57 -7 -117 -10 -132 -6
-268 -14 -349 -21 -155 -12 -289 -24 -335 -29 -19 -2 -62 -7 -95 -10 -33 -4
-71 -8 -85 -10 -14 -3 -52 -7 -86 -10 -33 -3 -69 -7 -80 -9 -10 -2 -48 -7 -84
-11 -36 -4 -72 -9 -80 -10 -8 -1 -37 -6 -65 -9 -79 -11 -108 -15 -135 -20 -14
-3 -43 -7 -65 -11 -22 -3 -56 -8 -75 -12 -19 -3 -46 -7 -60 -9 -14 -1 -27 -3
-30 -4 -6 -3 -11 -4 -80 -14 -30 -4 -71 -12 -90 -16 -19 -5 -53 -12 -75 -15
-22 -4 -51 -8 -65 -11 -116 -22 -179 -34 -200 -39 -14 -3 -41 -8 -60 -11 -19
-3 -39 -9 -45 -12 -5 -3 -23 -7 -40 -8 -16 -2 -70 -12 -120 -24 -49 -12 -97
-23 -105 -25 -8 -2 -15 -4 -15 -5 0 -1 -11 -3 -25 -5 -26 -5 -37 -7 -80 -18
-14 -4 -36 -9 -50 -11 -14 -3 -70 -17 -125 -31 -55 -15 -107 -28 -115 -30 -8
-1 -35 -8 -60 -15 -25 -7 -49 -13 -55 -14 -5 -2 -30 -8 -55 -15 -25 -7 -52
-15 -60 -17 -8 -1 -64 -17 -125 -34 -60 -18 -117 -33 -125 -35 -8 -2 -27 -8
-42 -14 -16 -6 -28 -7 -28 -4 0 4 -5 2 -12 -5 -7 -7 -22 -12 -35 -12 -13 0
-23 -4 -23 -8 0 -4 -9 -8 -21 -9 -17 -2 -57 -13 -139 -39 -8 -3 -15 -5 -15 -5
0 1 -115 -37 -255 -85 -140 -47 -259 -87 -265 -88 -5 -2 -23 -9 -40 -15 -32
-14 -213 -80 -230 -85 -5 -2 -21 -8 -35 -13 -14 -6 -54 -21 -90 -34 -36 -12
-68 -27 -71 -32 -3 -5 -9 -8 -13 -7 -4 1 -27 -5 -52 -15 -25 -9 -47 -15 -50
-13 -2 3 17 56 42 119 25 63 47 119 48 124 2 6 8 21 13 35 45 108 61 150 56
150 -3 0 -1 6 5 13 10 13 105 251 112 282 1 6 7 19 13 30 6 11 12 25 13 30 1
6 30 77 63 158 52 129 66 188 42 173 -4 -3 -20 1 -36 9 -27 12 -62 26 -75 30
-3 1 -18 7 -35 14 -59 26 -72 32 -244 101 -96 38 -180 70 -188 70 -7 0 -13 3
-13 8 0 4 -24 16 -53 26 -28 10 -77 29 -107 43 -30 14 -59 26 -65 28 -12 2
-42 15 -119 49 -32 14 -65 26 -72 26 -8 0 -14 5 -14 10 0 6 -8 10 -18 10 -10
0 -22 3 -26 7 -3 4 -12 8 -19 9 -23 4 -107 45 -107 52 0 4 20 16 43 26 23 11
80 37 127 59 47 22 95 43 108 48 47 19 77 34 84 44 4 5 8 7 8 3 0 -4 46 14
102 39 57 24 108 46 113 47 18 5 50 17 80 31 36 16 293 113 385 144 36 13 74
27 85 31 62 26 135 49 135 42 0 -4 4 -2 8 5 4 6 21 14 37 17 17 2 32 5 35 6 3
1 8 2 12 1 5 0 8 3 8 7 0 5 6 9 13 9 10 0 93 25 317 96 19 6 40 12 45 13 6 1
69 19 140 39 177 50 531 138 605 150 8 1 22 5 30 8 8 3 33 9 55 13 22 4 47 9
55 11 8 2 26 5 40 8 33 5 68 13 88 19 9 3 35 8 57 11 61 10 78 14 100 18 11 3
40 8 65 12 25 4 54 9 65 12 11 2 29 6 40 7 11 2 36 7 55 11 19 3 49 8 65 10
31 3 67 9 165 25 30 5 73 12 95 15 23 3 51 7 62 9 12 3 46 7 75 11 29 3 69 7
88 10 19 2 58 7 85 11 28 4 61 8 75 9 14 1 48 5 75 8 58 8 123 14 215 22 36 3
88 8 115 11 28 3 79 7 115 10 36 2 92 6 125 8 95 8 257 16 415 22 79 2 145 6
147 8 4 4 1003 -3 1098 -8z"/>
<path d="M6186 6023 c-1 -1 -28 -3 -60 -4 l-58 -2 7 -221 c3 -122 8 -261 10
-311 1 -49 6 -191 10 -315 4 -124 9 -256 10 -295 2 -38 4 -100 4 -136 l1 -66
133 3 c72 1 150 3 172 3 l41 1 -1 172 0 173 170 1 c204 2 230 6 320 49 90 44
145 96 200 189 15 25 23 46 18 46 -4 0 -2 4 5 8 7 5 14 18 16 29 3 11 9 37 15
58 10 38 9 209 -3 258 -29 124 -120 243 -231 304 -97 52 -137 57 -468 58 -170
0 -310 -1 -311 -2z m589 -320 c114 -63 122 -267 13 -344 -31 -22 -42 -24 -183
-24 l-150 0 -3 192 -3 192 153 -3 c88 -1 162 -7 173 -13z"/>
<path d="M7534 5986 c-2 -6 -6 -56 -9 -111 -13 -260 -15 -305 -20 -375 -2 -41
-7 -127 -11 -190 -3 -63 -7 -137 -9 -165 -15 -261 -18 -331 -19 -404 -1 -77 1
-84 19 -87 30 -5 201 -16 269 -18 68 -1 61 -14 71 138 4 56 8 117 10 136 2 19
7 76 11 125 3 50 8 92 11 95 3 3 34 5 70 5 l66 1 60 -126 c32 -69 88 -190 124
-270 36 -80 67 -146 69 -148 2 -4 19 -6 119 -17 115 -14 190 -24 222 -30 62
-14 63 23 3 150 -60 126 -93 199 -95 205 -6 21 -132 269 -143 283 -8 9 -12 17
-7 17 4 0 3 6 -3 13 -8 10 2 19 44 41 30 16 54 32 54 37 0 5 5 9 10 9 10 0 54
42 95 91 17 21 79 134 81 149 0 3 6 25 13 50 7 25 14 50 15 55 1 6 5 24 9 40
4 17 9 48 12 70 3 22 8 61 12 88 l6 47 -37 2 c-20 1 -48 3 -63 5 -47 5 -96 11
-158 18 -102 13 -130 12 -131 -5 -1 -8 -3 -19 -4 -25 -1 -5 -2 -14 -1 -18 1
-8 -27 -169 -33 -192 -2 -5 -8 -23 -14 -38 -7 -16 -12 -33 -12 -38 0 -5 -5 -9
-11 -9 -5 0 -8 -4 -5 -9 3 -5 -14 -27 -38 -49 -66 -60 -138 -79 -284 -73 -16
1 -22 6 -20 19 1 9 -1 23 -5 30 -5 6 -4 12 0 12 5 0 9 15 9 33 2 43 11 161 29
370 4 43 2 47 -18 48 -12 0 -35 2 -52 4 -16 1 -77 6 -135 10 -58 3 -120 8
-138 10 -19 1 -35 -2 -38 -9z"/>
<path d="M5178 5984 c-2 -1 -32 -4 -66 -7 -35 -3 -65 -7 -67 -9 -2 -2 -16 -37
-33 -78 -16 -41 -33 -84 -37 -95 -5 -11 -9 -22 -9 -25 -1 -3 -6 -18 -13 -35
-22 -59 -26 -70 -27 -75 -1 -3 -7 -15 -14 -27 -7 -13 -10 -23 -7 -23 3 0 -1
-13 -9 -29 -9 -16 -12 -31 -9 -35 4 -3 1 -6 -5 -6 -7 0 -11 -3 -11 -7 1 -5 0
-11 -1 -15 -1 -5 -3 -11 -4 -15 -1 -8 -21 -62 -36 -98 -5 -11 -18 -49 -30 -85
-12 -36 -47 -135 -77 -220 -29 -85 -56 -162 -58 -170 -2 -8 -10 -34 -18 -57
-9 -22 -13 -44 -10 -47 4 -3 2 -6 -4 -6 -5 0 -10 -6 -10 -12 0 -7 -15 -60 -34
-118 -29 -92 -35 -127 -24 -138 5 -5 36 -4 90 3 91 11 100 13 145 20 25 4 57
8 72 8 21 1 30 8 39 31 21 54 43 129 41 138 -2 9 40 17 118 23 36 3 81 7 100
10 33 5 72 8 261 21 l76 6 18 -39 c10 -21 29 -57 44 -81 l26 -43 105 7 c58 3
130 7 160 9 30 1 61 3 68 4 27 2 12 36 -178 386 -15 28 -44 82 -65 120 -21 39
-44 77 -51 86 -8 8 -14 18 -14 21 0 3 -16 35 -36 70 -20 34 -50 88 -67 118
-16 30 -36 62 -43 71 -8 8 -14 18 -14 21 0 4 -31 57 -69 120 -38 62 -95 156
-126 209 -48 80 -73 107 -87 93z m42 -641 c0 -6 4 -13 8 -15 11 -4 136 -228
131 -233 -2 -1 -35 -6 -74 -9 -153 -14 -200 -18 -205 -21 -3 -2 -11 0 -18 4
-11 7 26 134 94 319 l16 44 24 -39 c13 -21 24 -43 24 -50z"/>
<path d="M4088 5842 c-21 -3 -42 -24 -97 -100 -39 -53 -77 -106 -85 -117 -20
-25 -100 -139 -146 -206 -19 -28 -39 -56 -45 -62 -5 -7 -26 -35 -45 -62 -19
-28 -38 -51 -42 -53 -4 -2 -8 -9 -8 -15 -1 -33 -70 -78 -70 -46 0 5 -4 8 -8 5
-5 -3 -15 4 -22 15 -8 10 -18 19 -22 19 -5 0 -32 17 -61 37 -28 20 -115 79
-192 130 -77 51 -145 96 -151 101 -24 17 -51 33 -81 49 -18 9 -33 20 -33 25 0
4 -7 8 -15 8 -8 0 -15 3 -15 8 0 17 -60 33 -97 26 -21 -5 -40 -9 -43 -9 -3 -1
-15 -4 -28 -9 -22 -7 -23 -23 -5 -76 3 -8 7 -26 9 -40 3 -14 12 -48 20 -76 8
-29 14 -56 13 -60 -1 -5 0 -16 4 -24 3 -8 9 -28 13 -45 4 -16 8 -34 10 -40 7
-31 16 -72 16 -82 1 -7 4 -13 7 -13 3 0 7 -10 7 -22 1 -13 4 -32 7 -43 9 -34
27 -109 33 -135 3 -14 25 -106 49 -205 24 -99 58 -242 76 -318 l33 -139 31 7
c16 4 35 8 40 9 11 3 123 27 140 30 71 15 128 32 131 40 2 6 -1 34 -6 61 -6
28 -15 70 -20 95 -5 25 -12 56 -15 70 -2 14 -7 34 -9 45 -2 11 -7 31 -10 45
-3 14 -8 36 -10 50 -2 14 -11 54 -20 90 -8 36 -17 78 -20 93 -5 28 -4 28 17
13 12 -9 36 -23 52 -32 17 -9 32 -20 35 -23 3 -4 30 -22 60 -41 30 -19 57 -37
60 -40 3 -3 17 -11 33 -19 15 -8 27 -18 27 -23 0 -4 5 -8 12 -8 6 0 19 -7 29
-16 33 -29 62 -6 140 111 41 61 79 116 86 123 7 7 13 16 13 20 0 4 11 20 25
36 14 16 25 33 25 38 0 5 5 6 11 3 5 -4 8 -12 6 -18 -2 -7 -1 -19 4 -28 4 -9
11 -38 14 -65 5 -48 12 -89 15 -89 1 0 3 -13 4 -30 2 -16 6 -48 10 -70 4 -22
16 -92 28 -155 22 -127 23 -131 41 -125 11 4 34 8 112 20 11 2 54 9 95 16 41
6 84 12 95 13 17 1 20 8 20 41 -1 35 -4 63 -21 175 -2 14 -6 43 -8 65 -3 22
-8 51 -10 65 -3 14 -8 43 -11 65 -3 22 -8 54 -11 70 -3 17 -7 46 -9 65 -3 19
-7 51 -10 70 -3 19 -7 49 -9 65 -2 17 -7 48 -10 70 -10 59 -17 106 -22 143 -6
45 -12 90 -19 137 -3 22 -8 56 -10 75 -2 19 -5 36 -6 38 -1 1 -2 10 -3 20 -4
28 -17 115 -22 144 -5 28 -18 30 -106 20z"/>
<path d="M9395 5735 c-44 -7 -98 -18 -120 -25 -66 -21 -168 -72 -195 -97 -14
-13 -32 -26 -40 -29 -21 -7 -105 -112 -126 -157 -10 -20 -21 -37 -24 -37 -4 0
-7 -6 -8 -12 0 -7 -12 -51 -26 -98 -22 -74 -25 -101 -23 -205 3 -100 8 -133
31 -200 29 -84 99 -200 140 -230 14 -10 23 -22 20 -27 -3 -4 -1 -8 5 -8 5 0
16 -6 24 -14 25 -26 130 -96 142 -96 7 0 18 -7 25 -15 7 -9 15 -13 18 -11 2 3
21 -3 41 -13 110 -55 371 -75 507 -39 70 19 189 72 211 93 8 8 18 15 22 15 27
0 201 212 201 245 0 4 6 21 14 38 13 28 21 53 43 137 3 8 6 58 8 110 7 206
-62 355 -233 503 -17 15 -36 27 -40 27 -5 0 -17 8 -28 18 -22 21 -149 79 -214
98 -120 35 -257 46 -375 29z m235 -351 c38 -6 127 -42 148 -59 106 -85 138
-151 134 -272 -5 -119 -78 -231 -186 -282 -68 -31 -180 -35 -266 -9 -187 58
-286 217 -245 394 40 175 204 265 415 228z"/>
<path d="M6315 4212 c-2 -2 -43 -5 -92 -7 -48 -1 -90 -3 -93 -4 -3 -1 -5 -419
-5 -930 0 -823 1 -930 15 -933 8 -2 234 -3 503 -2 435 0 487 -1 488 -15 1 -9
1 -55 1 -103 0 -57 4 -88 11 -90 11 -4 237 -3 277 1 13 1 15 39 13 284 -1 155
-2 295 -2 310 l-1 29 -70 -4 -70 -3 0 30 c-1 49 1 777 2 1115 l2 315 -45 2
c-126 6 -329 8 -330 4 -1 -4 -2 -324 -3 -713 0 -388 -4 -710 -8 -714 -12 -11
-398 -8 -409 3 -7 7 -7 13 -1 17 6 3 8 14 6 24 -3 9 -6 325 -7 702 l-2 685
-88 0 c-49 0 -90 -1 -92 -3z"/>
<path d="M5643 4180 c-28 -4 -57 -39 -245 -290 -118 -157 -233 -310 -257 -340
-23 -30 -74 -98 -114 -150 -39 -52 -74 -97 -78 -100 -3 -3 -15 -20 -26 -38
-13 -20 -22 -28 -25 -20 -2 7 -5 199 -6 427 -1 227 -5 417 -8 422 -3 5 -9 7
-12 5 -4 -2 -28 -7 -52 -10 -57 -8 -118 -17 -150 -21 -61 -9 -126 -18 -137
-18 -7 0 -13 -5 -14 -11 -2 -20 0 -281 2 -286 1 -3 0 -9 -1 -15 -5 -21 -3 -96
3 -101 3 -3 2 -17 -3 -30 -5 -13 -6 -26 -1 -28 9 -6 8 -36 -2 -52 -3 -6 -4
-14 0 -18 10 -9 10 -198 0 -218 -4 -10 -4 -18 0 -18 4 0 8 -195 8 -433 0 -237
2 -452 5 -477 l5 -44 63 -1 c61 0 65 1 90 34 15 19 69 86 120 148 50 62 92
115 92 118 0 3 8 13 18 23 9 10 31 35 47 57 17 21 40 50 53 63 12 12 22 26 22
30 0 4 12 21 28 37 15 17 32 38 37 47 27 43 258 337 265 338 3 0 5 -198 5
-439 0 -383 2 -440 15 -443 8 -2 60 -3 115 -2 55 1 134 2 175 3 l75 1 -3 718
c-1 394 -4 812 -5 927 l-2 210 -35 0 c-19 1 -49 -2 -67 -5z"/>
<path d="M7665 3725 c0 -256 -4 -465 -8 -465 -5 0 -5 -5 -1 -11 6 -10 9 -137
4 -164 -2 -5 -1 -14 0 -20 5 -25 4 -85 -1 -85 -4 0 -3 -16 1 -35 4 -20 4 -38
-1 -41 -5 -3 -5 -13 1 -25 6 -10 7 -19 2 -19 -10 0 -9 -36 0 -46 4 -3 3 -16
-2 -28 -4 -13 -4 -29 1 -39 6 -9 6 -17 2 -17 -4 0 -8 -22 -8 -50 0 -27 4 -50
8 -50 5 0 5 -5 2 -11 -10 -15 -11 -169 -2 -169 5 0 5 -6 0 -12 -12 -20 -9 -97
4 -102 7 -3 155 -6 330 -6 623 -3 662 -4 666 -15 2 -5 3 -49 3 -97 -1 -70 1
-87 14 -90 8 -2 76 -4 150 -3 l135 0 3 288 c2 158 0 287 -5 288 -4 1 -34 3
-67 5 -32 2 -60 5 -63 8 -4 4 -4 500 0 1094 1 158 -2 256 -8 260 -5 3 -16 7
-25 8 -32 3 -116 15 -145 19 -16 3 -52 7 -80 10 -27 3 -65 8 -82 10 -33 5 -33
4 -34 -38 -1 -71 -7 -888 -8 -1114 l-1 -212 -187 5 c-104 3 -197 5 -209 5 -20
0 -20 4 -19 212 0 116 4 218 8 225 5 6 5 12 0 12 -4 0 -7 105 -5 233 1 127 3
239 3 247 0 8 0 51 -1 95 0 44 1 144 1 222 1 78 -2 147 -6 153 -4 6 -21 11
-39 10 -17 -1 -33 -1 -36 0 -6 2 -41 5 -185 14 l-110 7 0 -466z"/>
<path d="M4050 3964 c-36 -8 -78 -16 -95 -19 -16 -2 -30 -4 -30 -5 0 -1 -7 -3
-15 -5 -8 -1 -51 -10 -95 -19 -44 -9 -91 -18 -105 -21 -14 -3 -38 -8 -55 -12
-16 -4 -34 -8 -40 -9 -5 -1 -12 -3 -15 -4 -3 -1 -12 -3 -20 -5 -8 -2 -28 -6
-45 -10 -16 -4 -40 -7 -52 -8 -13 -1 -23 -4 -23 -7 0 -4 -6 -7 -12 -7 -7 0
-25 -3 -40 -7 -16 -3 -40 -8 -55 -11 -16 -3 -37 -9 -48 -12 -11 -4 -25 -8 -32
-9 -69 -12 -271 -68 -281 -78 -12 -12 -14 -228 -12 -1329 l0 -98 183 3 182 4
3 582 2 582 28 1 c15 1 37 2 50 2 12 1 22 4 22 7 0 4 6 7 13 7 6 1 30 4 52 7
22 4 51 9 65 10 14 2 41 7 60 11 19 3 46 8 60 10 14 2 37 7 51 10 17 3 28 0
31 -7 2 -7 6 -260 7 -563 2 -302 3 -572 4 -600 l2 -49 180 3 c99 1 182 5 185
8 10 10 6 478 -5 485 -7 5 -7 8 0 8 12 0 13 279 1 298 -4 7 -3 12 1 12 10 0 9
71 0 87 -4 7 -3 14 2 18 7 4 7 15 1 30 -6 16 -6 25 0 25 6 0 6 9 0 25 -6 15
-6 25 0 25 5 0 5 12 0 30 -5 17 -6 30 -2 30 4 0 6 33 4 72 -6 186 -6 270 1
275 4 2 4 10 0 16 -4 6 -6 60 -6 119 1 124 9 117 -107 92z"/>
<path d="M9760 3900 c-7 -16 -11 -32 -10 -36 1 -4 -3 -10 -8 -13 -5 -3 -22
-34 -36 -69 -15 -34 -40 -92 -56 -128 -17 -35 -30 -68 -30 -73 0 -5 -7 -14
-15 -21 -8 -7 -13 -16 -10 -20 2 -4 -4 -25 -14 -46 -10 -22 -38 -84 -61 -139
-23 -55 -50 -118 -60 -140 -10 -22 -61 -146 -113 -275 -53 -129 -124 -302
-158 -385 -43 -104 -63 -164 -63 -195 l-1 -44 175 -3 175 -4 12 28 c6 15 26
63 43 105 18 43 37 75 44 72 6 -2 64 -5 128 -7 65 -2 121 -6 124 -10 4 -3 14
-2 24 3 10 5 20 6 24 3 3 -4 45 -7 94 -9 48 -1 102 -3 120 -3 26 -1 35 -7 43
-28 6 -15 20 -48 33 -73 12 -25 24 -49 26 -55 11 -41 21 -43 190 -45 91 -1
170 -2 176 -1 18 2 9 51 -19 111 -14 30 -55 125 -92 210 -94 217 -89 206 -125
295 -18 44 -37 86 -44 94 -6 8 -10 15 -8 15 5 1 -71 200 -107 281 -12 27 -96
239 -97 245 0 3 -5 16 -11 30 -6 14 -19 45 -28 70 -9 25 -21 54 -25 65 -5 11
-23 57 -41 102 -34 90 -35 90 -138 108 -19 3 -38 8 -41 10 -4 3 -13 -9 -20
-25z m108 -707 c11 -32 22 -65 24 -73 2 -8 6 -17 9 -20 3 -3 16 -34 28 -70 12
-36 25 -72 28 -80 4 -8 7 -17 8 -20 1 -3 7 -18 13 -33 21 -50 16 -65 -20 -61
-18 2 -60 6 -93 9 -136 12 -180 16 -183 19 -1 2 2 14 7 27 5 13 10 29 11 34 1
6 7 19 13 30 6 11 11 22 12 25 0 3 21 57 47 120 25 63 49 123 52 133 10 30 23
18 44 -40z"/>
</g>
</svg>
