<?xml version="1.0" encoding="utf-8"?>
<!-- Generator: Adobe Illustrator 19.1.0, SVG Export Plug-In . SVG Version: 6.00 Build 0)  -->
<svg version="1.1" id="Layer_1" xmlns="http://www.w3.org/2000/svg" xmlns:xlink="http://www.w3.org/1999/xlink" x="0px" y="0px"
	 width="329.6px" height="248.4px" viewBox="0 0 329.6 248.4" style="enable-background:new 0 0 329.6 248.4;" xml:space="preserve"
	>
<style type="text/css">
	.st0{fill:none;stroke:#FFFFFF;stroke-width:4;stroke-miterlimit:10;}
	.st1{fill:#FFFFFF;}
	.st2{fill:none;stroke:#FFFFFF;stroke-width:3;stroke-miterlimit:10;}
</style>
<image style="display:none;overflow:visible;" width="499" height="407" xlink:href="5C35B9D352A5DF3E.jpg"  transform="matrix(1 0 0 1 -90.8515 -60.4091)">
</image>
<g>
	<path class="st0" d="M9,163.7c95.3-47.4,210.4-36.6,306.8,0.1c-10.7,4-21.3,8-32,11.9c4,10.6,8,21.2,12,31.8
		c-82.8-42.2-182.3-34.4-265.8,0c4-10,8-20.1,11.9-30.2C30.9,172.9,19.9,168.4,9,163.7z"/>
</g>
<g>
	<g>
		<path class="st1" d="M101.3,143.2c1.3-0.2,2-0.3,3.3-0.5c1.6,11.1,3.3,22.2,4.9,33.3c-2.9,0.4-5.9,0.9-8.8,1.4
			c-1-5.9-1.5-8.9-2.5-14.8c-2.5,3.5-3.7,5.2-6,8.7c-0.4,0.1-0.6,0.1-1,0.2c-3.5-2.4-5.2-3.5-8.8-5.8c1.3,5.9,1.9,8.8,3.1,14.6
			c-2.9,0.6-5.8,1.3-8.7,2c-2.6-10.9-5.2-21.8-7.9-32.8c1.4-0.3,2-0.5,3.4-0.8c7,4.4,10.4,6.6,17,11.3
			C94.1,153.3,96.4,149.9,101.3,143.2z"/>
		<path class="st1" d="M137.4,168.7c-5.4,0.4-8.1,0.6-13.5,1.2c-0.6,1.8-0.9,2.7-1.5,4.4c-3.4,0.4-5.1,0.6-8.4,1.1
			c-0.1-0.5-0.1-0.7-0.2-1.2c3.6-11.6,7.7-23.1,12.1-34.4c1.6-0.2,2.4-0.2,4.1-0.4c6.4,10.3,12.5,20.9,18.1,31.7
			c0,0.5,0,0.7,0.1,1.2c-3.4,0.2-5.1,0.2-8.5,0.5C138.8,171.2,138.3,170.4,137.4,168.7z M129.1,153.2c-1.3,3.7-1.9,5.5-3.1,9.2
			c3.2-0.3,4.8-0.5,8-0.7C132.1,158.2,131.1,156.6,129.1,153.2z"/>
		<path class="st1" d="M152.6,172.2c-0.4-11.2-0.7-22.4-1.1-33.6c5.3-0.2,10.9-0.2,16.2-0.2c16.7,0,16.4,25.4-0.2,25
			c-2.6,0-3.8,0-6.4,0c0,3.4,0,5.2,0.1,8.6C158.3,172,155.4,172.1,152.6,172.2z M167.6,146.1c-2.2,0-4.5,0-6.6,0
			c0,2.7,0.1,6.9,0.1,9.6c2.6,0,3.9,0,6.5,0C172.5,155.7,173,146.2,167.6,146.1z"/>
		<path class="st1" d="M186.2,172.6c0.6-11.2,1.3-22.4,1.9-33.5c3.2,0.2,6.3,0.4,9.6,0.7c-0.4,5.1-0.6,7.6-1,12.7
			c0.3,0,0.4,0,0.7,0.1c9.1,0.8,9.3-5.6,10-11.8c3.2,0.3,6.4,0.7,9.7,1.1c-0.9,6.8-1.6,13-9,16.5c3.2,6.3,4.7,9.5,7.6,15.8
			c-0.1,0.5-0.1,0.8-0.2,1.3c-3.8-0.5-5.7-0.8-9.6-1.2c-2.4-5.5-3.7-8.2-6.3-13.7c-1.2,0.1-2.3,0-3.5-0.1c-0.4,5.1-0.6,7.7-1,12.8
			C192,173,189.1,172.8,186.2,172.6z"/>
		<path class="st1" d="M220.6,159.2c3.2-22.5,41.2-15.4,35.8,6.9C251.3,187.3,217.6,180.6,220.6,159.2z M247.4,164
			c2.3-10.9-15.7-13.8-17.5-3.4C228.1,171,245.1,174.8,247.4,164z"/>
	</g>
</g>
<g>
	<g>
		<path class="st1" d="M104,231.1c-3.1,0.1-6.2,0.1-9.3,0.2c-0.1-10.2-0.1-20.4-0.2-30.6c-4.4,0.7-6.6,1.1-10.9,1.9
			c0,9.6,0.1,19.3,0.1,28.9c-3.1,0.1-6.3,0.2-9.3,0.2c0-11.9,0-23.8,0-35.7c9.7-2.6,19.5-4.8,29.4-6.6
			C103.8,203.3,103.9,217.2,104,231.1z"/>
		<path class="st1" d="M116.4,231c-1.3,0-2,0-3.3,0c-0.1-14.4-0.2-28.8-0.3-43.1c3.1-0.5,6.2-0.9,9.3-1.3c0.1,8.7,0.1,13,0.1,21.7
			c6.1-7.9,12.1-15.8,18-23.8c1.3-0.1,2-0.2,3.3-0.2c0.1,15.5,0.1,30.9,0.2,46.4c-3.1,0-6.3,0-9.4,0.1c0-8.9-0.1-13.4-0.1-22.4
			C128.5,216,122.5,223.5,116.4,231z"/>
		<path class="st1" d="M152.9,183.9c3.8-0.2,5.6-0.2,9.4-0.3c0,12,0,23.9,0,35.9c4.2,0,6.2,0,10.4,0c0-12,0-23.9,0-35.9
			c3.8,0,5.6,0.1,9.4,0.2c0,12.1-0.1,24.3-0.1,36.4c1.5,0,2.2,0,3.6,0c0,6.2,0,9.4,0,15.6c-3,0-4.5,0-7.5,0c0-2.1,0-3.2,0-5.3
			c-10.1,0-15.1,0-25.2,0C153,215,152.9,199.4,152.9,183.9z"/>
		<path class="st1" d="M191.4,184.2c3.8,0.2,5.6,0.4,9.4,0.7c-0.1,11.7-0.1,23.3-0.2,35c4.1,0.1,6.2,0.2,10.4,0.3
			c0.1-11.4,0.1-22.8,0.2-34.2c3.7,0.4,5.6,0.7,9.4,1.2c-0.1,11.3-0.2,22.7-0.2,34c1.4,0.1,2.2,0.1,3.6,0.2c0,5.8-0.1,8.7-0.1,14.4
			c-3,0-4.5,0-7.5,0c0-2,0-3,0-5c-10.1-0.1-15.1-0.2-25.2-0.2C191.3,215.1,191.4,199.7,191.4,184.2z"/>
		<path class="st1" d="M252.7,226.7c-5.6-0.3-8.4-0.4-14-0.6c-0.8,2-1.3,3-2.1,5.1c-3.6-0.1-5.4-0.1-8.9-0.2c0-0.6,0-1,0-1.6
			c5.2-13,10.5-25.9,16.3-38.6c1.6,0.3,2.3,0.5,3.9,0.9c5,13.1,10.1,26,15.9,38.8c0,0.5,0,0.8,0,1.3c-3.6-0.1-5.3-0.1-8.9-0.2
			C253.9,229.6,253.5,228.7,252.7,226.7z M245.7,207.3c-1.6,3.9-2.4,6-4.1,10.1c3.3,0.3,4.9,0.4,8.1,0.7
			C248.2,213.8,247.4,211.7,245.7,207.3z"/>
	</g>
</g>
<path class="st1" d="M150.3,7.1c0,0-55.1,2.3-98.8,35.1c-0.7,0.6,1.7,3.4,10.6-4.5s52.5-21.3,55-21.3S150.3,7.1,150.3,7.1z"/>
<path class="st1" d="M220.2,27.8c0,0,17.9,12.7,18.5,14c0.6,1.2,4.3-2.1,4.3-2.1S224.4,28.1,220.2,27.8z"/>
<g>
	<path class="st1" d="M134.3,127.2h5.5L57.3,59.8c0,0-13.6-11.9-21.1,3.2c-7.5,15-28.3,54.8-19.1,82.8c1.8,4.8,10.1,1.8,12.5,0.8
		c3.8-1.1,2-0.6,5.4-1.6c17.5-5.1,73.2-20.6,91.8-17.2c0,0-57-45.7-56-49.2C71.8,75.1,134.3,127.2,134.3,127.2z M46.6,125.5
		c-6,0-10.8-4.6-10.8-10.3c0-5.7,4.8-10.3,10.8-10.3s10.8,4.6,10.8,10.3C57.4,120.9,52.6,125.5,46.6,125.5z M52,94.8
		c-3,0-5.4-2.1-5.4-4.6c0-2.6,2.4-4.6,5.4-4.6s5.4,2.1,5.4,4.6C57.4,92.7,55,94.8,52,94.8z M63.9,71.8c-0.4,1.2-7.1-4.6-15.3-7.4
		s-23,57.9-23.2,59.2c-0.2,1.3-5.8,11.6-6.5,0.9s7.9-33.4,7.9-33.4s5-12.5,8.3-18.4c5.1-8.4,10.3-14.8,18.1-9.9S64.4,70.7,63.9,71.8
		z M68.5,127.6c-1.8,0-3.2-1.3-3.2-3s1.4-3,3.2-3s3.2,1.3,3.2,3S70.3,127.6,68.5,127.6z M92,112.3c3.8,0,6.8,2.6,6.8,5.8
		c0,3.2-3.1,5.8-6.8,5.8s-6.8-2.6-6.8-5.8C85.1,114.9,88.2,112.3,92,112.3z M74,92.9c5.1,0,9.2,4.4,9.2,9.7c0,5.4-4.1,9.7-9.2,9.7
		s-9.2-4.4-9.2-9.7C64.8,97.2,68.9,92.9,74,92.9z"/>
	<ellipse class="st1" cx="51.7" cy="89.7" rx="3.1" ry="3.2"/>
	<path class="st1" d="M91.6,123c2.2,0,4.1-1.8,4.1-3.9c0-2.2-1.8-3.9-4.1-3.9c-2.2,0-4.1,1.8-4.1,3.9C87.6,121.3,89.4,123,91.6,123z
		 M91.3,117.4c1.3,0,2.3,0.9,2.3,2.1c0,1.2-1,2.1-2.3,2.1s-2.3-0.9-2.3-2.1C89,118.3,90,117.4,91.3,117.4z"/>
</g>
<path class="st1" d="M203.4,16.1c-9.3-4.9-62.2-17.6-87.1,0c0,0-4.6,0.9,0,15.3c4.6,14.5,28.6,95.2,28.6,95.2s10.1-0.4,12.2,0
	l49.7-94.3C206.9,32.3,212.7,21,203.4,16.1z M132.7,55.5c0-3.4,2.9-6.1,6.5-6.1c3.6,0,6.5,2.7,6.5,6.1c0,3.4-2.9,6.1-6.5,6.1
	C135.6,61.6,132.7,58.9,132.7,55.5z M142.5,35.3c0-4.9,4.6-8.8,10.3-8.8c5.7,0,10.3,3.9,10.3,8.8s-4.6,8.8-10.3,8.8
	C147.1,44.1,142.5,40.2,142.5,35.3z M149.8,89.7c-4.1,0-7.4-2.8-7.4-6.3s3.3-6.3,7.4-6.3c4.1,0,7.4,2.8,7.4,6.3
	S153.9,89.7,149.8,89.7z M169.7,65.7c-5.5,0-10-4.4-10-9.9c0-5.5,4.5-9.9,10-9.9c5.5,0,10,4.4,10,9.9
	C179.7,61.3,175.2,65.7,169.7,65.7z M188.3,25.1c0,0-50.7-8.1-59.1-4c-18.8,5-10.9-3.1-8.8-4.6s50.5-10.1,79,4.8
	C211.2,29.1,188.3,25.1,188.3,25.1z"/>
<ellipse class="st1" cx="86.4" cy="70.1" rx="4.9" ry="4.4"/>
<ellipse class="st1" cx="124.3" cy="99.2" rx="2.4" ry="3.4"/>
<ellipse class="st1" cx="113.8" cy="85" rx="11.9" ry="7.9"/>
<ellipse class="st1" cx="108.9" cy="57.3" rx="8" ry="9.5"/>
<path class="st2" d="M76.2,54c0.4,1.5,3-1.7,6.3-3.8c5.2-3.3,11.3-7.7,8.7-8.6C87.1,40,71.4,37.4,76.2,54z"/>
<path class="st1" d="M82.6,49.7c0,0,3.5,3.2,3.4,4.7c-0.1,1.5,2,3,3.8,1.7c1.9-1.3,6.2-6.6,2.6-6.8c-3.6-0.1-5.6-2.5-5.6-2.5
	L82.6,49.7z"/>
<g>
	<path class="st1" d="M300.9,117.5c-7.1-36.3-46.3-74.9-54.4-73.4c-13.9,2.6-73.8,82.5-73.8,82.5s5-0.9,16.9-0.4
		c0.4-2.6,3.2-4.6,6.6-4.6c3.7,0,6.6,2.3,6.6,5.2c0,0.1,0,0.3,0,0.4c7.5,0.8,16.7,2.1,27.6,4c-0.2-0.8-0.3-1.6-0.3-2.4
		c0-6.4,5.2-11.5,11.7-11.5s11.7,5.2,11.7,11.5c0,2.5-0.8,4.8-2.2,6.6c8.1,1.8,16.9,3.9,26.5,6.4C313,155.2,305.8,142.7,300.9,117.5
		z M203.7,107.1c-2.2-1.9-0.4-4.4,1.9-4.5c1.9-0.1,5.1-3.1,6.1-4.1c-0.1-0.1-0.2-0.2-0.4-0.3c-3.8-3.5-8.9-5.9-6.8-6.6
		c23.9-7.5,22.6,10.4,21.1,15.3c-0.7,2.1-4.7-0.4-9-4c-0.8,0.8-2.7,3.1-2.4,6.3C214.7,113.2,206,109.1,203.7,107.1z M225.7,120.6
		c-1.9,0-3.5-1.4-3.5-3.1s1.6-3.1,3.5-3.1c1.9,0,3.5,1.4,3.5,3.1S227.6,120.6,225.7,120.6z M251.4,111.3c-7.3,0-13.2-5.7-13.2-12.7
		c0-7,5.9-12.7,13.2-12.7c7.3,0,13.2,5.7,13.2,12.7C264.6,105.7,258.7,111.3,251.4,111.3z M240.9,73c0-2.3,1.7-4.2,3.8-4.2
		s3.8,1.9,3.8,4.2s-1.7,4.2-3.8,4.2S240.9,75.3,240.9,73z M267,130.1c-1.8,0-3.3-1.4-3.3-3.1s1.5-3.1,3.3-3.1c1.8,0,3.3,1.4,3.3,3.1
		S268.8,130.1,267,130.1z M273.2,76.3c-7.5-8.5-24.5-22.4-31.9-17.7S217.3,78,220.7,72.2c4.5-9.9,20.2-22.6,20.2-22.6s3.1-3.3,8-2.5
		c18.6,8.6,40.5,44.6,41.4,53.5C291.1,107.2,280.7,84.9,273.2,76.3z"/>
</g>
</svg>
